solid ASCII
  facet normal 0.000000e+00 1.000000e+00 -0.000000e+00
    outer loop
      vertex   9.600000e+01 -3.600000e+01 5.000000e+00
      vertex   4.000000e+00 -3.600000e+01 5.000000e+00
      vertex   9.600000e+01 -3.600000e+01 8.000000e+00
    endloop
  endfacet
  facet normal 0.000000e+00 1.000000e+00 0.000000e+00
    outer loop
      vertex   9.600000e+01 -3.600000e+01 8.000000e+00
      vertex   4.000000e+00 -3.600000e+01 5.000000e+00
      vertex   4.000000e+00 -3.600000e+01 8.000000e+00
    endloop
  endfacet
  facet normal -1.000000e+00 0.000000e+00 0.000000e+00
    outer loop
      vertex   9.600000e+01 -4.000000e+00 5.000000e+00
      vertex   9.600000e+01 -3.600000e+01 5.000000e+00
      vertex   9.600000e+01 -4.000000e+00 8.000000e+00
    endloop
  endfacet
  facet normal -1.000000e+00 -0.000000e+00 0.000000e+00
    outer loop
      vertex   9.600000e+01 -4.000000e+00 8.000000e+00
      vertex   9.600000e+01 -3.600000e+01 5.000000e+00
      vertex   9.600000e+01 -3.600000e+01 8.000000e+00
    endloop
  endfacet
  facet normal 9.654113e-18 -1.000000e+00 2.960595e-16
    outer loop
      vertex   4.000000e+00 -4.000000e+00 5.000000e+00
      vertex   9.600000e+01 -4.000000e+00 5.000000e+00
      vertex   4.000000e+00 -4.000000e+00 8.000000e+00
    endloop
  endfacet
  facet normal 0.000000e+00 -1.000000e+00 0.000000e+00
    outer loop
      vertex   4.000000e+00 -4.000000e+00 8.000000e+00
      vertex   9.600000e+01 -4.000000e+00 5.000000e+00
      vertex   9.600000e+01 -4.000000e+00 8.000000e+00
    endloop
  endfacet
  facet normal 1.000000e+00 -1.110223e-16 0.000000e+00
    outer loop
      vertex   4.000000e+00 -3.600000e+01 5.000000e+00
      vertex   4.000000e+00 -4.000000e+00 5.000000e+00
      vertex   4.000000e+00 -3.600000e+01 8.000000e+00
    endloop
  endfacet
  facet normal 1.000000e+00 -1.110223e-16 0.000000e+00
    outer loop
      vertex   4.000000e+00 -3.600000e+01 8.000000e+00
      vertex   4.000000e+00 -4.000000e+00 5.000000e+00
      vertex   4.000000e+00 -4.000000e+00 8.000000e+00
    endloop
  endfacet
  facet normal 1.850372e-17 1.000000e+00 -0.000000e+00
    outer loop
      vertex   9.800000e+01 -2.000000e+00 5.000000e+00
      vertex   2.000000e+00 -2.000000e+00 5.000000e+00
      vertex   9.800000e+01 -2.000000e+00 8.000000e+00
    endloop
  endfacet
  facet normal 0.000000e+00 1.000000e+00 5.921189e-16
    outer loop
      vertex   9.800000e+01 -2.000000e+00 8.000000e+00
      vertex   2.000000e+00 -2.000000e+00 5.000000e+00
      vertex   2.000000e+00 -2.000000e+00 8.000000e+00
    endloop
  endfacet
  facet normal 1.000000e+00 0.000000e+00 0.000000e+00
    outer loop
      vertex   9.800000e+01 -3.800000e+01 5.000000e+00
      vertex   9.800000e+01 -2.000000e+00 5.000000e+00
      vertex   9.800000e+01 -3.800000e+01 8.000000e+00
    endloop
  endfacet
  facet normal 1.000000e+00 -0.000000e+00 0.000000e+00
    outer loop
      vertex   9.800000e+01 -3.800000e+01 8.000000e+00
      vertex   9.800000e+01 -2.000000e+00 5.000000e+00
      vertex   9.800000e+01 -2.000000e+00 8.000000e+00
    endloop
  endfacet
  facet normal 0.000000e+00 -1.000000e+00 0.000000e+00
    outer loop
      vertex   2.000000e+00 -3.800000e+01 5.000000e+00
      vertex   9.800000e+01 -3.800000e+01 5.000000e+00
      vertex   2.000000e+00 -3.800000e+01 8.000000e+00
    endloop
  endfacet
  facet normal 0.000000e+00 -1.000000e+00 0.000000e+00
    outer loop
      vertex   2.000000e+00 -3.800000e+01 8.000000e+00
      vertex   9.800000e+01 -3.800000e+01 5.000000e+00
      vertex   9.800000e+01 -3.800000e+01 8.000000e+00
    endloop
  endfacet
  facet normal -1.000000e+00 -1.973730e-16 -1.168683e-31
    outer loop
      vertex   2.000000e+00 -2.000000e+00 5.000000e+00
      vertex   2.000000e+00 -3.800000e+01 5.000000e+00
      vertex   2.000000e+00 -2.000000e+00 8.000000e+00
    endloop
  endfacet
  facet normal -1.000000e+00 -1.973730e-16 0.000000e+00
    outer loop
      vertex   2.000000e+00 -2.000000e+00 8.000000e+00
      vertex   2.000000e+00 -3.800000e+01 5.000000e+00
      vertex   2.000000e+00 -3.800000e+01 8.000000e+00
    endloop
  endfacet
  facet normal 0.000000e+00 0.000000e+00 1.000000e+00
    outer loop
      vertex   4.000000e+00 -4.000000e+00 8.000000e+00
      vertex   2.000000e+00 -3.800000e+01 8.000000e+00
      vertex   4.000000e+00 -3.600000e+01 8.000000e+00
    endloop
  endfacet
  facet normal 0.000000e+00 0.000000e+00 1.000000e+00
    outer loop
      vertex   4.000000e+00 -3.600000e+01 8.000000e+00
      vertex   2.000000e+00 -3.800000e+01 8.000000e+00
      vertex   9.800000e+01 -3.800000e+01 8.000000e+00
    endloop
  endfacet
  facet normal -0.000000e+00 0.000000e+00 1.000000e+00
    outer loop
      vertex   4.000000e+00 -3.600000e+01 8.000000e+00
      vertex   9.800000e+01 -3.800000e+01 8.000000e+00
      vertex   9.600000e+01 -3.600000e+01 8.000000e+00
    endloop
  endfacet
  facet normal -0.000000e+00 0.000000e+00 1.000000e+00
    outer loop
      vertex   9.600000e+01 -3.600000e+01 8.000000e+00
      vertex   9.800000e+01 -3.800000e+01 8.000000e+00
      vertex   9.600000e+01 -4.000000e+00 8.000000e+00
    endloop
  endfacet
  facet normal -0.000000e+00 0.000000e+00 1.000000e+00
    outer loop
      vertex   9.600000e+01 -4.000000e+00 8.000000e+00
      vertex   9.800000e+01 -3.800000e+01 8.000000e+00
      vertex   9.800000e+01 -2.000000e+00 8.000000e+00
    endloop
  endfacet
  facet normal 0.000000e+00 -0.000000e+00 1.000000e+00
    outer loop
      vertex   9.600000e+01 -4.000000e+00 8.000000e+00
      vertex   9.800000e+01 -2.000000e+00 8.000000e+00
      vertex   2.000000e+00 -2.000000e+00 8.000000e+00
    endloop
  endfacet
  facet normal 0.000000e+00 -0.000000e+00 1.000000e+00
    outer loop
      vertex   2.000000e+00 -3.800000e+01 8.000000e+00
      vertex   4.000000e+00 -4.000000e+00 8.000000e+00
      vertex   2.000000e+00 -2.000000e+00 8.000000e+00
    endloop
  endfacet
  facet normal 0.000000e+00 0.000000e+00 1.000000e+00
    outer loop
      vertex   2.000000e+00 -2.000000e+00 8.000000e+00
      vertex   4.000000e+00 -4.000000e+00 8.000000e+00
      vertex   9.600000e+01 -4.000000e+00 8.000000e+00
    endloop
  endfacet
  facet normal 0.000000e+00 0.000000e+00 1.000000e+00
    outer loop
      vertex   1.000000e+02 -4.000000e+01 5.000000e+00
      vertex   2.000000e+00 -3.800000e+01 5.000000e+00
      vertex   0.000000e+00 -4.000000e+01 5.000000e+00
    endloop
  endfacet
  facet normal 0.000000e+00 0.000000e+00 1.000000e+00
    outer loop
      vertex   0.000000e+00 -4.000000e+01 5.000000e+00
      vertex   2.000000e+00 -3.800000e+01 5.000000e+00
      vertex   2.000000e+00 -2.000000e+00 5.000000e+00
    endloop
  endfacet
  facet normal 0.000000e+00 0.000000e+00 1.000000e+00
    outer loop
      vertex   0.000000e+00 -4.000000e+01 5.000000e+00
      vertex   2.000000e+00 -2.000000e+00 5.000000e+00
      vertex   0.000000e+00 0.000000e+00 5.000000e+00
    endloop
  endfacet
  facet normal 0.000000e+00 0.000000e+00 1.000000e+00
    outer loop
      vertex   0.000000e+00 0.000000e+00 5.000000e+00
      vertex   2.000000e+00 -2.000000e+00 5.000000e+00
      vertex   9.800000e+01 -2.000000e+00 5.000000e+00
    endloop
  endfacet
  facet normal -0.000000e+00 0.000000e+00 1.000000e+00
    outer loop
      vertex   0.000000e+00 0.000000e+00 5.000000e+00
      vertex   9.800000e+01 -2.000000e+00 5.000000e+00
      vertex   1.000000e+02 0.000000e+00 5.000000e+00
    endloop
  endfacet
  facet normal 0.000000e+00 0.000000e+00 1.000000e+00
    outer loop
      vertex   1.000000e+02 0.000000e+00 5.000000e+00
      vertex   9.800000e+01 -2.000000e+00 5.000000e+00
      vertex   1.000000e+02 -4.000000e+01 5.000000e+00
    endloop
  endfacet
  facet normal 0.000000e+00 0.000000e+00 1.000000e+00
    outer loop
      vertex   1.000000e+02 -4.000000e+01 5.000000e+00
      vertex   9.800000e+01 -2.000000e+00 5.000000e+00
      vertex   9.800000e+01 -3.800000e+01 5.000000e+00
    endloop
  endfacet
  facet normal 0.000000e+00 0.000000e+00 1.000000e+00
    outer loop
      vertex   1.000000e+02 -4.000000e+01 5.000000e+00
      vertex   9.800000e+01 -3.800000e+01 5.000000e+00
      vertex   2.000000e+00 -3.800000e+01 5.000000e+00
    endloop
  endfacet
  facet normal -1.000000e+00 0.000000e+00 0.000000e+00
    outer loop
      vertex   0.000000e+00 0.000000e+00 0.000000e+00
      vertex   0.000000e+00 -4.000000e+01 0.000000e+00
      vertex   0.000000e+00 0.000000e+00 5.000000e+00
    endloop
  endfacet
  facet normal -1.000000e+00 -0.000000e+00 0.000000e+00
    outer loop
      vertex   0.000000e+00 0.000000e+00 5.000000e+00
      vertex   0.000000e+00 -4.000000e+01 0.000000e+00
      vertex   0.000000e+00 -4.000000e+01 5.000000e+00
    endloop
  endfacet
  facet normal 0.000000e+00 1.000000e+00 -0.000000e+00
    outer loop
      vertex   1.000000e+02 0.000000e+00 0.000000e+00
      vertex   0.000000e+00 0.000000e+00 0.000000e+00
      vertex   1.000000e+02 0.000000e+00 5.000000e+00
    endloop
  endfacet
  facet normal 0.000000e+00 1.000000e+00 0.000000e+00
    outer loop
      vertex   1.000000e+02 0.000000e+00 5.000000e+00
      vertex   0.000000e+00 0.000000e+00 0.000000e+00
      vertex   0.000000e+00 0.000000e+00 5.000000e+00
    endloop
  endfacet
  facet normal 1.000000e+00 0.000000e+00 0.000000e+00
    outer loop
      vertex   1.000000e+02 -4.000000e+01 0.000000e+00
      vertex   1.000000e+02 0.000000e+00 0.000000e+00
      vertex   1.000000e+02 -4.000000e+01 5.000000e+00
    endloop
  endfacet
  facet normal 1.000000e+00 -0.000000e+00 0.000000e+00
    outer loop
      vertex   1.000000e+02 -4.000000e+01 5.000000e+00
      vertex   1.000000e+02 0.000000e+00 0.000000e+00
      vertex   1.000000e+02 0.000000e+00 5.000000e+00
    endloop
  endfacet
  facet normal 0.000000e+00 -1.000000e+00 0.000000e+00
    outer loop
      vertex   0.000000e+00 -4.000000e+01 0.000000e+00
      vertex   1.000000e+02 -4.000000e+01 0.000000e+00
      vertex   0.000000e+00 -4.000000e+01 5.000000e+00
    endloop
  endfacet
  facet normal 0.000000e+00 -1.000000e+00 0.000000e+00
    outer loop
      vertex   0.000000e+00 -4.000000e+01 5.000000e+00
      vertex   1.000000e+02 -4.000000e+01 0.000000e+00
      vertex   1.000000e+02 -4.000000e+01 5.000000e+00
    endloop
  endfacet
  facet normal 0.000000e+00 0.000000e+00 1.000000e+00
    outer loop
      vertex   4.000000e+00 -3.600000e+01 5.000000e+00
      vertex   9.600000e+01 -3.600000e+01 5.000000e+00
      vertex   4.000000e+00 -4.000000e+00 5.000000e+00
    endloop
  endfacet
  facet normal -0.000000e+00 0.000000e+00 1.000000e+00
    outer loop
      vertex   4.000000e+00 -4.000000e+00 5.000000e+00
      vertex   9.600000e+01 -3.600000e+01 5.000000e+00
      vertex   9.600000e+01 -4.000000e+00 5.000000e+00
    endloop
  endfacet
  facet normal 0.000000e+00 0.000000e+00 -1.000000e+00
    outer loop
      vertex   1.000000e+02 -4.000000e+01 0.000000e+00
      vertex   0.000000e+00 -4.000000e+01 0.000000e+00
      vertex   1.000000e+02 0.000000e+00 0.000000e+00
    endloop
  endfacet
  facet normal -0.000000e+00 0.000000e+00 -1.000000e+00
    outer loop
      vertex   1.000000e+02 0.000000e+00 0.000000e+00
      vertex   0.000000e+00 -4.000000e+01 0.000000e+00
      vertex   0.000000e+00 0.000000e+00 0.000000e+00
    endloop
  endfacet
endsolid
